<svg id="Layer_1" data-name="Layer 1" xmlns="http://www.w3.org/2000/svg" viewBox="0 0 21.94 24"><defs><style>.cls-1{fill:#28303e;}</style></defs><title>c_icon_grey</title><path class="cls-1" d="M16.59,9.2A3.78,3.78,0,0,0,13,5.81C9.69,5.72,8,8.28,8,12s1.86,6.59,5.05,6.59,3.53-3.66,3.53-3.66l6.11.36a7.68,7.68,0,0,1-2.2,5.84A10.73,10.73,0,0,1,12.63,24c-2.19,0-5.23,0-8.17-3A11.51,11.51,0,0,1,1,12.23c0-2.87.55-6.67,4.05-9.55A10.86,10.86,0,0,1,12.25,0,10.17,10.17,0,0,1,23,9.26Z" transform="translate(-1.03 0)"/></svg>